<svg width="96" height="96" viewBox="0 0 96 96" fill="none" xmlns="http://www.w3.org/2000/svg">
<g clip-path="url(#clip0_81_1009)">
<rect width="96" height="96" fill="#DB163A"/>
</g>
<g clip-path="url(#clip1_81_1009)">
<path d="M61.7031 38.1562L49.0534 57.8438H38.513L51.1614 38.1562H61.7031ZM70.1135 52.9219C68.3526 52.9219 67.3878 50.5923 68.4267 48.9805L75.4056 38.1562H64.8653L60.1056 45.5327C58.9624 47.3031 58.9679 48.6729 60.1056 50.4529L63.2471 55.3428C64.8474 57.8325 66.4271 57.8438 69.0814 57.8438H76.4596C82.7811 57.8421 87 52.9187 87 45.5391V40.6172C87 33.236 82.7825 28.3125 76.4596 28.3125H66.9733C66.5341 28.3125 65.9193 28.3125 65.3923 28.9277C64.8653 29.543 64.8653 30.2607 64.8653 30.7734V33.2344H76.4596C77.7772 33.2344 78.5677 34.1572 78.5677 35.6953V50.4609C78.5677 51.999 77.7772 52.9219 76.4596 52.9219H70.1135ZM30.1013 43.0781C31.8635 43.0781 32.8283 45.4061 31.7894 47.0179L24.8105 57.8438H35.3509L40.1105 50.4673C41.2524 48.6953 41.2483 47.3255 40.1105 45.5471L36.969 40.6572C35.3687 38.1659 33.789 38.1562 31.1347 38.1562H11.1081C10.6689 38.1562 10.054 38.1562 9.52702 38.7715C9 39.3867 9 40.1045 9 40.6172V43.0781H13.2161V67.6875H21.6484V43.0781H30.1013Z" fill="white"/>
</g>
<defs>
<clipPath id="clip0_81_1009">
<rect width="96" height="96" rx="12" fill="white"/>
</clipPath>
<clipPath id="clip1_81_1009">
<rect width="96" height="96" fill="white"/>
</clipPath>
</defs>
</svg>
