<svg width="40" height="40" viewBox="0 0 40 40" fill="none" xmlns="http://www.w3.org/2000/svg">
<path d="M16 19.9247L18.3211 21.8419C18.4693 21.9643 18.6546 22.0188 18.8385 21.9942C19.0223 21.9696 19.1904 21.8678 19.3076 21.7099L24 15" stroke="#FF0000" stroke-width="1.3" stroke-linecap="round"/>
<path d="M28 29.1005V22.1212V12.4242V10.5C28 10.2239 27.7761 10 27.5 10H13.5C13.2239 10 13 10.2239 13 10.5V29.0605C13 29.4609 13.4472 29.6989 13.7793 29.4752L19.9316 25.3323C20.0949 25.2223 20.3076 25.2184 20.4748 25.3223L27.236 29.5251C27.5691 29.7322 28 29.4926 28 29.1005Z" stroke="#FF0000" stroke-width="1.3" stroke-linecap="round"/>
</svg>
