<svg width="40" height="40" viewBox="0 0 40 40" fill="none" stroke="black" xmlns="http://www.w3.org/2000/svg">
<path d="M29 15V25C29 28 27.5 30 24 30H16C12.5 30 11 28 11 25V15C11 12 12.5 10 16 10H24C27.5 10 29 12 29 15Z" stroke-width="1.5" stroke-miterlimit="10" stroke-linecap="round" stroke-linejoin="round"/>
<path d="M22.5 12.5V14.5C22.5 15.6 23.4 16.5 24.5 16.5H26.5" stroke-width="1.5" stroke-miterlimit="10" stroke-linecap="round" stroke-linejoin="round"/>
<path d="M15.4801 23.49C15.1501 22.46 15.5401 21.19 16.6101 20.84C17.1801 20.66 17.8801 20.81 18.2701 21.36C18.6401 20.79 19.3701 20.66 19.9301 20.84C21.0101 21.19 21.3901 22.46 21.0701 23.49C20.5601 25.12 18.7701 25.9699 18.2701 25.9699C17.7801 25.9599 16.0101 25.13 15.4801 23.49Z" stroke-width="1.5" stroke-linecap="round" stroke-linejoin="round"/>
</svg>
