<svg width="40" height="40" viewBox="0 0 40 40" fill="none" xmlns="http://www.w3.org/2000/svg">
<path d="M11 15C11 14.4477 11.4029 14 11.9 14H28.1C28.5971 14 29 14.4477 29 15C29 15.5523 28.5971 16 28.1 16H11.9C11.4029 16 11 15.5523 11 15Z" fill="black"/>
<path d="M11 20C11 19.4477 11.4029 19 11.9 19H28.1C28.5971 19 29 19.4477 29 20C29 20.5523 28.5971 21 28.1 21H11.9C11.4029 21 11 20.5523 11 20Z" fill="black"/>
<path d="M11.9 24C11.4029 24 11 24.4477 11 25C11 25.5523 11.4029 26 11.9 26H28.1C28.5971 26 29 25.5523 29 25C29 24.4477 28.5971 24 28.1 24H11.9Z" fill="black"/>
</svg>
