<svg width="40" height="40" viewBox="0 0 40 40" fill="none" xmlns="http://www.w3.org/2000/svg">
<path d="M25.1999 30C27.8509 30 29.9999 27.851 29.9999 25.2C29.9999 22.549 27.8509 20.4 25.1999 20.4C22.5489 20.4 20.3999 22.549 20.3999 25.2C20.3999 27.851 22.5489 30 25.1999 30Z" stroke="black" stroke-width="1.5" stroke-miterlimit="10" stroke-linecap="round" stroke-linejoin="round"/>
<path d="M26.9899 25.26H23.4099" stroke="black" stroke-width="1.5" stroke-miterlimit="10" stroke-linecap="round" stroke-linejoin="round"/>
<path d="M25.2 23.51V27.1" stroke="black" stroke-width="1.5" stroke-miterlimit="10" stroke-linecap="round" stroke-linejoin="round"/>
<path d="M30 16.69C30 18.66 29.49 20.4 28.69 21.91C27.81 20.98 26.57 20.4 25.2 20.4C22.55 20.4 20.4 22.55 20.4 25.2C20.4 26.43 20.87 27.55 21.63 28.4C21.26 28.57 20.92 28.71 20.62 28.81C20.28 28.93 19.72 28.93 19.38 28.81C16.48 27.82 10 23.69 10 16.69C10 13.6 12.49 11.1 15.56 11.1C17.37 11.1 18.99 11.98 20 13.33C21.01 11.98 22.63 11.1 24.44 11.1C27.51 11.1 30 13.6 30 16.69Z" stroke="black" stroke-width="1.5" stroke-linecap="round" stroke-linejoin="round"/>
</svg>
