<svg width="24" height="24" viewBox="0 0 24 24" fill="none" xmlns="http://www.w3.org/2000/svg">
<path d="M17.9645 6.83551C17.7563 6.28892 17.4559 5.86016 16.9873 5.55416C16.6091 5.30718 16.1573 5.16475 15.6367 5.07566C15.4586 5.04517 15.2689 5.02037 15.0669 5H17.9034L17.9645 6.83551ZM13.1327 18.5517C13.2864 18.6662 13.4659 18.7471 13.6622 18.808H10.3376C10.5335 18.747 10.7128 18.6659 10.8662 18.5511C11.3522 18.1876 11.3915 17.637 11.3915 17.1435V5.403V5H12.6055V5.403V17.1435C12.6055 17.6371 12.6448 18.1883 13.1327 18.5517ZM6.10541 5H8.94008C8.73816 5.02037 8.54841 5.04516 8.37034 5.07563C7.84987 5.1647 7.39823 5.30708 7.02016 5.55399C6.55189 5.85982 6.25172 6.2883 6.04352 6.8344L6.10541 5Z" fill="black" stroke="#E21A1A"/>
</svg>
